<svg width="307" xmlns="http://www.w3.org/2000/svg" height="88" id="screenshot-f43bdf69-cbf1-80d1-8006-4094bd268561" viewBox="0 0 307 88" xmlns:xlink="http://www.w3.org/1999/xlink" fill="none" version="1.1"><style>/* vietnamese */
@font-face {
  font-family: 'Quicksand';
  font-style: normal;
  font-weight: 700;
  font-display: block;
  src: url(https://design.penpot.app/internal/gfonts/font/quicksand/v36/6xK-dSZaM9iE8KbpRA_LJ3z8mH9BOJvgkBgv58m-wi40.woff2) format('woff2');
  unicode-range: U+0102-0103, U+0110-0111, U+0128-0129, U+0168-0169, U+01A0-01A1, U+01AF-01B0, U+0300-0301, U+0303-0304, U+0308-0309, U+0323, U+0329, U+1EA0-1EF9, U+20AB;
}
/* latin-ext */
@font-face {
  font-family: 'Quicksand';
  font-style: normal;
  font-weight: 700;
  font-display: block;
  src: url(https://design.penpot.app/internal/gfonts/font/quicksand/v36/6xK-dSZaM9iE8KbpRA_LJ3z8mH9BOJvgkBgv58i-wi40.woff2) format('woff2');
  unicode-range: U+0100-02BA, U+02BD-02C5, U+02C7-02CC, U+02CE-02D7, U+02DD-02FF, U+0304, U+0308, U+0329, U+1D00-1DBF, U+1E00-1E9F, U+1EF2-1EFF, U+2020, U+20A0-20AB, U+20AD-20C0, U+2113, U+2C60-2C7F, U+A720-A7FF;
}
/* latin */
@font-face {
  font-family: 'Quicksand';
  font-style: normal;
  font-weight: 700;
  font-display: block;
  src: url(https://design.penpot.app/internal/gfonts/font/quicksand/v36/6xK-dSZaM9iE8KbpRA_LJ3z8mH9BOJvgkBgv58a-wg.woff2) format('woff2');
  unicode-range: U+0000-00FF, U+0131, U+0152-0153, U+02BB-02BC, U+02C6, U+02DA, U+02DC, U+0304, U+0308, U+0329, U+2000-206F, U+20AC, U+2122, U+2191, U+2193, U+2212, U+2215, U+FEFF, U+FFFD;
}
</style><g id="shape-f43bdf69-cbf1-80d1-8006-4094bd268561" rx="0" ry="0"><g id="shape-f43bdf69-cbf1-80d1-8006-40946781dcce"><g class="fills" id="fills-f43bdf69-cbf1-80d1-8006-40946781dcce"><rect rx="30" ry="30" x="0" y="0" transform="matrix(1.000000, 0.000000, 0.000000, 1.000000, 0.000000, 0.000000)" width="307" height="88" style="fill: rgb(40, 42, 153); fill-opacity: 1;"/></g></g><g id="shape-f43bdf69-cbf1-80d1-8006-409498a68ebe" rx="0" ry="0"><g id="shape-f43bdf69-cbf1-80d1-8006-409498a68ebf" rx="0" ry="0" style="fill: rgb(0, 0, 0);"><g id="shape-f43bdf69-cbf1-80d1-8006-409498a68ec1" style="display: none;"><g class="fills" id="fills-f43bdf69-cbf1-80d1-8006-409498a68ec1"><rect width="45" height="45" x="224" transform="matrix(1.000000, 0.000000, 0.000000, 1.000000, 0.000000, 0.000000)" style="fill: none;" ry="0" fill="none" rx="0" y="21.5"/></g></g><g id="shape-f43bdf69-cbf1-80d1-8006-409498a68ec2"><g class="fills" id="fills-f43bdf69-cbf1-80d1-8006-409498a68ec2"><path d="M238.340,29.000C236.530,29.000,234.947,29.093,233.606,29.384C232.247,29.678,231.025,30.198,230.052,31.131C228.131,32.972,227.774,35.855,227.751,39.259C227.744,40.341,228.488,41.205,229.420,41.468C229.730,41.556,230.289,41.766,230.742,42.168C231.137,42.519,231.500,43.048,231.500,44.000C231.500,44.952,231.137,45.481,230.742,45.832C230.289,46.234,229.730,46.444,229.420,46.532C228.488,46.795,227.744,47.659,227.751,48.742C227.774,52.145,228.131,55.028,230.052,56.869C231.025,57.802,232.247,58.322,233.606,58.617C234.947,58.907,236.530,59.000,238.340,59.000L254.660,59.000C256.470,59.000,258.053,58.907,259.394,58.617C260.753,58.322,261.975,57.802,262.948,56.869C264.868,55.028,265.226,52.145,265.249,48.742C265.256,47.659,264.512,46.795,263.580,46.532C263.270,46.444,262.711,46.234,262.258,45.832C261.862,45.481,261.500,44.952,261.500,44.000C261.500,43.048,261.862,42.519,262.258,42.168C262.711,41.766,263.270,41.556,263.580,41.468C264.512,41.205,265.256,40.341,265.249,39.259C265.226,35.855,264.868,32.972,262.948,31.131C261.975,30.198,260.753,29.678,259.394,29.384C258.053,29.093,256.470,29.000,254.660,29.000L238.340,29.000ZZM254.000,34.625C254.000,33.589,253.160,32.750,252.125,32.750C251.089,32.750,250.250,33.589,250.250,34.625L250.250,36.500C250.250,37.536,251.089,38.375,252.125,38.375C253.160,38.375,254.000,37.536,254.000,36.500L254.000,34.625ZZM252.125,49.625C253.160,49.625,254.000,50.464,254.000,51.500L254.000,53.375C254.000,54.411,253.160,55.250,252.125,55.250C251.089,55.250,250.250,54.411,250.250,53.375L250.250,51.500C250.250,50.464,251.089,49.625,252.125,49.625ZZM254.000,42.125C254.000,41.089,253.160,40.250,252.125,40.250C251.089,40.250,250.250,41.089,250.250,42.125L250.250,45.875C250.250,46.911,251.089,47.750,252.125,47.750C253.160,47.750,254.000,46.911,254.000,45.875L254.000,42.125ZZ" fill-rule="evenodd" clip-rule="evenodd" style="fill: rgb(255, 255, 255); fill-opacity: 1;"/></g></g></g><g id="shape-f43bdf69-cbf1-80d1-8006-409498a68ec0" rx="0" ry="0" style="fill: rgb(0, 0, 0);"><g id="shape-f43bdf69-cbf1-80d1-8006-409498a68ec3" style="display: none;"><g class="fills" id="fills-f43bdf69-cbf1-80d1-8006-409498a68ec3"><rect width="15" height="15" x="269" transform="matrix(1.000000, 0.000000, 0.000000, 1.000000, 0.000000, 0.000000)" style="fill: none;" ry="0" fill="none" rx="0" y="20"/></g></g><g id="shape-f43bdf69-cbf1-80d1-8006-409498a68ec4"><g class="fills" id="fills-f43bdf69-cbf1-80d1-8006-409498a68ec4"><path d="M282.125,25.625L278.375,25.625L278.375,21.875C278.375,20.839,277.535,20.000,276.500,20.000C275.465,20.000,274.625,20.839,274.625,21.875L274.625,25.625L270.875,25.625C269.840,25.625,269.000,26.464,269.000,27.500C269.000,28.536,269.840,29.375,270.875,29.375L274.625,29.375L274.625,33.125C274.625,34.161,275.465,35.000,276.500,35.000C277.535,35.000,278.375,34.161,278.375,33.125L278.375,29.375L282.125,29.375C283.160,29.375,284.000,28.536,284.000,27.500C284.000,26.464,283.160,25.625,282.125,25.625Z" fill-rule="evenodd" style="fill: rgb(255, 255, 255);"/></g></g></g></g><g id="shape-f43bdf69-cbf1-80d1-8006-4094792d898a"><g transform="matrix(1.000000, 0.000000, 0.000000, 1.000000, 0.000000, 0.000000)" class="text-container" x="22" y="18" width="201.99999999999994" height="48" rx="0" ry="0"><defs><pattern patternUnits="objectBoundingBox" width="194.60000610351562" height="50.39999771118164" id="fill-0-render-10-0"><g><rect width="194.60000610351562" height="50.39999771118164" style="fill: rgb(255, 255, 255); fill-opacity: 1;"/></g></pattern></defs><g class="fills" id="fills-f43bdf69-cbf1-80d1-8006-4094792d898a"><text x="22" y="66.79999768733978" dominant-baseline="ideographic" textLength="194.60000610351562" lengthAdjust="spacingAndGlyphs" style="text-transform: none; font-family: Quicksand; letter-spacing: normal; font-style: normal; font-weight: 700; white-space: pre; font-size: 40px; text-decoration: none solid rgb(0, 15, 255); direction: ltr; fill: rgb(255, 255, 255); fill-opacity: 1;">TicketPlus</text></g></g></g></g></svg>